<svg width="73" height="72" viewBox="0 0 73 72" fill="none" xmlns="http://www.w3.org/2000/svg">
<g clip-path="url(#clip0_271_6198)">
<path d="M53.162 18.3028C46.6059 18.3028 40.0158 18.3028 33.222 18.3028C33.222 15.0393 33.222 11.843 33.222 8.68037C33.222 7.16636 33.3239 5.65234 33.188 4.13832C32.9842 2.18692 33.5277 0.773832 35.6338 0C40.3895 3.46542 45.1112 7.26729 50.2066 10.4299C53.5356 12.4822 53.7734 15.0393 53.162 18.3028Z" fill="#D5D5D6"/>
<path d="M30.0968 26.344C25.9865 26.344 22.0121 26.344 17.7319 26.344C17.7319 25.0318 17.7319 23.7533 17.7319 22.5084C17.7319 19.7159 17.698 16.8897 17.7659 14.0972C17.7659 13.4916 18.0377 12.6841 18.4453 12.3813C22.2159 9.55517 26.0544 6.82994 30.0968 3.90283C30.0968 11.4729 30.0968 18.8075 30.0968 26.344Z" fill="#D5D5D6"/>
<path d="M53.2638 20.9272C53.2638 26.8824 53.2638 32.7702 53.2638 38.7927C49.2894 38.7927 45.4169 38.7927 41.4425 38.7927C41.4425 32.8712 41.4425 26.9833 41.4425 20.9272C45.315 20.9272 49.2215 20.9272 53.2638 20.9272Z" fill="#D5D5D6"/>
<path d="M17.8339 38.7589C17.8339 35.4953 17.8339 32.2654 17.8339 28.9346C24.7976 28.9346 31.6933 28.9346 38.725 28.9346C38.725 32.1981 38.725 35.3944 38.725 38.7589C31.7613 38.7589 24.8655 38.7589 17.8339 38.7589Z" fill="#D5D5D6"/>
<path d="M0 52.5195C1.39274 52.5195 2.6496 52.5195 4.07631 52.5195C4.07631 54.8747 4.07631 57.1289 4.07631 59.5177C6.92973 59.5177 9.54537 59.5177 12.3309 59.5177C12.3309 57.1962 12.3309 54.942 12.3309 52.5532C13.7915 52.5532 15.0484 52.5532 16.4072 52.5532C16.4072 58.8448 16.4072 65.0691 16.4072 71.4616C15.1503 71.4616 13.8934 71.4616 12.4667 71.4616C12.4667 68.8373 12.4667 66.2466 12.4667 63.4878C9.68125 63.4878 7.06561 63.4878 4.21219 63.4878C4.21219 66.0784 4.21219 68.7363 4.21219 71.4952C2.71754 71.4952 1.42671 71.4952 0.0339693 71.4952C0 65.17 0 58.8784 0 52.5195Z" fill="#D5D5D6"/>
<path d="M38.3853 71.5627C37.9097 71.5627 37.4002 71.5627 36.9246 71.5627C33.9353 71.5627 33.8674 71.5964 32.7803 68.8039C32.3727 67.7945 31.8632 67.3571 30.7762 67.4917C30.0968 67.559 29.4174 67.5927 28.738 67.4917C26.0544 67.1553 23.8464 67.5254 23.3709 70.7553C23.3369 71.0581 22.5896 71.4618 22.148 71.4955C21.027 71.5964 19.906 71.5291 18.5132 71.5291C19.1247 70.0824 19.6682 68.7702 20.2457 67.4581C22.2838 62.7814 24.288 58.1048 26.3941 53.4618C26.6319 52.9571 27.4132 52.4525 27.9567 52.4525C28.8399 52.4188 29.9949 51.8469 30.6063 53.2263C33.188 59.1814 35.8036 65.1366 38.3853 71.0917C38.4192 71.1927 38.3853 71.2936 38.3853 71.5627ZM28.3643 58.0375C27.5151 60.2581 26.8357 61.974 26.1563 63.7235C27.7529 63.7235 29.1117 63.7235 30.6403 63.7235C29.9269 61.873 29.2475 60.1908 28.3643 58.0375Z" fill="#D5D5D6"/>
<path d="M56.5928 52.5532C56.5928 56.9943 56.7287 61.3009 56.5249 65.6074C56.389 68.4 54.7585 70.4859 52.0749 71.3943C47.523 72.9084 42.1219 71.6635 40.8311 66.5495C40.6952 66.0112 40.5933 65.4392 40.5933 64.9009C40.5593 60.8299 40.5933 56.7252 40.5933 52.5532C41.986 52.5532 43.2429 52.5532 44.7375 52.5532C44.7375 55.2785 44.7375 58.0037 44.7375 60.7289C44.7375 61.8056 44.7036 62.8486 44.7375 63.9252C44.8055 66.3813 46.402 68.1644 48.61 68.1644C50.7501 68.1644 52.3806 66.5495 52.4825 64.0934C52.5844 61.57 52.5165 59.0467 52.5165 56.5233C52.5165 55.2448 52.5165 53.9663 52.5165 52.5532C53.8753 52.5532 55.1321 52.5532 56.5928 52.5532Z" fill="#D5D5D6"/>
<path d="M73 53.9999C71.9809 55.1102 71.0638 56.0522 70.5882 56.5569C68.6519 56.355 67.1913 56.0522 65.7645 56.1532C65.221 56.1868 64.3718 57.0952 64.3039 57.6672C64.2359 58.2392 64.8474 59.1139 65.4249 59.4504C66.3081 59.9887 67.3951 60.2242 68.4141 60.527C71.913 61.6373 73.034 63.1513 72.8981 66.4485C72.7622 69.0728 70.9279 71.1251 67.8367 71.7307C64.7455 72.3364 61.7562 71.9999 59.1745 69.6111C60.1256 68.5681 61.0768 67.5588 62.0619 66.4821C63.5565 67.6597 65.1191 68.6691 67.0214 67.8952C67.7008 67.6261 68.584 66.8859 68.6519 66.2803C68.7199 65.6747 67.9725 64.7999 67.3611 64.3962C66.5458 63.8578 65.4928 63.656 64.5416 63.3195C60.9749 62.1083 59.6501 60.5943 59.7859 57.8691C59.9218 54.9083 61.7901 52.8223 65.255 52.1831C68.0065 51.7121 70.5882 52.0821 73 53.9999Z" fill="#D5D5D6"/>
</g>
<defs>
<clipPath id="clip0_271_6198">
<rect width="73" height="72" fill="white"/>
</clipPath>
</defs>
</svg>
