<svg width="51" height="28" viewBox="0 0 51 28" fill="none" xmlns="http://www.w3.org/2000/svg">
<path d="M13.1901 11.2032C13.0543 10.9306 12.8396 10.7057 12.5731 10.5369C12.2951 10.3664 11.9669 10.247 11.5918 10.1762C11.2101 10.107 10.7692 10.0757 10.2584 10.0708L7.90005 10.0724C7.65492 10.0757 7.41472 10.2668 7.35714 10.504L5.77039 17.4233C5.71281 17.6572 5.86663 17.8532 6.11176 17.8532H7.24116C7.48629 17.8532 7.72895 17.6629 7.78324 17.4233L8.17068 15.7433C8.2225 15.5094 8.46434 15.3142 8.71193 15.3142H9.03521C10.4163 15.3126 11.4857 15.0301 12.254 14.4643C13.0264 13.8977 13.4072 13.1492 13.4072 12.2219C13.4064 11.8159 13.3398 11.4749 13.1901 11.2032ZM10.7544 13.4637C10.413 13.7141 9.9384 13.8393 9.3264 13.8393H9.05001C8.80406 13.8393 8.65353 13.6449 8.707 13.4077L9.04672 11.9386C9.09443 11.703 9.34203 11.5079 9.58469 11.5095L9.95485 11.507C10.3867 11.507 10.7166 11.582 10.937 11.7269C11.155 11.8702 11.2644 12.0983 11.2628 12.4006C11.2693 12.8601 11.0941 13.2134 10.7544 13.4637Z" fill="#2B2F32" fill-opacity="0.5"/>
<path d="M45.3859 10.6128L45.3151 10.6342L45.2205 10.6474L45.1045 10.6293L45.0453 10.5716L45.0182 10.481L45.0165 10.3451V9.84197H45.3941V9.68632H45.0165V9.37256H44.8298V9.68632H44.7031V9.84197H44.8298V10.4275L44.917 10.7174L45.1736 10.8096L45.2814 10.8006L45.3957 10.7783V10.6128H45.3859Z" fill="#2B2F32" fill-opacity="0.5"/>
<path d="M47.1371 9.76645L46.8673 9.65527L46.6682 9.69563L46.4658 9.83233L46.3482 9.70139L46.1574 9.6561L45.9739 9.69645L45.8004 9.80845V9.68657H45.6169V10.786H45.7996V9.96492L45.9534 9.86939L46.1064 9.83151L46.2314 9.85374L46.2931 9.91716L46.3202 10.0226L46.3293 10.1584V10.7868H46.5127V10.0835L46.5094 10.025L46.5062 9.97151L46.6624 9.87186L46.8171 9.83316L46.938 9.85539L47.0038 9.9188L47.0268 10.025L47.0392 10.1593V10.7876H47.2234V10.0736L47.1371 9.76645Z" fill="#2B2F32" fill-opacity="0.5"/>
<path d="M18.6365 12.1927C18.2104 11.9523 17.5375 11.832 16.6179 11.832C16.163 11.832 15.7097 11.8674 15.2516 11.9383C14.9135 11.9901 14.8806 12 14.6725 12.0453C14.2431 12.1392 14.1756 12.5683 14.1756 12.5683L14.0374 13.1373C13.9593 13.5005 14.1682 13.4865 14.2554 13.456C14.443 13.4 14.5474 13.3424 14.9307 13.2567C15.2968 13.1736 15.6826 13.111 15.9886 13.1151C16.4402 13.1151 16.7857 13.1629 17.016 13.26C17.243 13.3589 17.3565 13.5285 17.3565 13.7739L17.3368 13.9337L17.1739 14.0341C16.5331 14.0745 16.07 14.1338 15.5082 14.2153C14.9587 14.2919 14.4767 14.4261 14.0761 14.6098C13.6459 14.7992 13.3267 15.0537 13.1038 15.3773C12.8883 15.7026 12.7805 16.0971 12.7805 16.5599C12.7805 16.9956 12.9368 17.3554 13.2403 17.6338C13.5455 17.9072 13.9486 18.0406 14.4306 18.0406C14.7358 18.039 14.9719 18.0151 15.1397 17.9747L15.6867 17.7861L16.1498 17.5292L16.5759 17.2476L16.5817 17.2558L16.5389 17.437L16.5364 17.4444V17.446C16.4904 17.6667 16.6236 17.8479 16.8383 17.8693L16.8424 17.8743H16.8622H17.7283H17.8912L17.906 17.8677C18.1314 17.8413 18.3428 17.6601 18.3922 17.4444L19.2156 13.876L19.2583 13.5853L19.2781 13.3127C19.2814 12.8071 19.0634 12.4324 18.6365 12.1927ZM16.8153 16.205L16.6392 16.4372L16.195 16.667C15.9861 16.7518 15.7879 16.7946 15.6044 16.7946C15.3264 16.7946 15.1084 16.7543 14.9612 16.6719L14.7432 16.2478C14.7432 16.018 14.7958 15.836 14.9085 15.696L15.3873 15.3699C15.5921 15.3007 15.8422 15.2423 16.1317 15.2019C16.39 15.1698 16.9 15.1113 16.9666 15.1097L17.0448 15.2472C17.0291 15.3254 16.8844 15.9316 16.8153 16.205Z" fill="#2B2F32" fill-opacity="0.5"/>
<path d="M39.1499 12.1975C38.7213 11.957 38.0493 11.8359 37.1321 11.8359C36.6772 11.8359 36.2232 11.8713 35.7666 11.9446C35.4277 11.9941 35.394 12.0048 35.1851 12.0492C34.7565 12.1423 34.6899 12.573 34.6899 12.573L34.5517 13.1412C34.4744 13.5044 34.6783 13.4879 34.7738 13.4599C34.9621 13.4039 35.0633 13.3488 35.4434 13.2598C35.8078 13.1775 36.1968 13.1165 36.5037 13.1182C36.9536 13.1182 37.2991 13.1668 37.5286 13.2639C37.7573 13.3628 37.8691 13.5341 37.8691 13.777L37.8519 13.9359L37.6906 14.0389C37.0433 14.0776 36.5793 14.1369 36.0233 14.2184C35.4754 14.295 34.9918 14.4284 34.5903 14.6129C34.1618 14.8031 33.8385 15.0576 33.618 15.3821C33.4001 15.7073 33.2939 16.101 33.2939 16.5597C33.2939 16.9986 33.4486 17.3585 33.7562 17.6352C34.0631 17.9078 34.462 18.0445 34.944 18.0445C35.2476 18.0412 35.4837 18.0215 35.6523 17.9778L36.1977 17.7917L36.6649 17.5348L37.0877 17.2498L37.0951 17.2589L37.0564 17.4417L37.0523 17.445L37.054 17.4483C37.003 17.669 37.137 17.8518 37.3542 17.8716L37.3558 17.8757H37.3756C37.5179 17.8757 38.0098 17.8757 38.2442 17.8757H38.4038L38.4211 17.8699C38.644 17.8428 38.8546 17.6616 38.9015 17.4433L39.7274 13.8799L39.7709 13.5876L39.7948 13.3142C39.7956 12.8102 39.5801 12.4371 39.1499 12.1975ZM37.3328 16.2097L37.1494 16.4444L36.7093 16.6725C36.5004 16.7565 36.3013 16.8002 36.1212 16.8002C35.8341 16.8002 35.6219 16.759 35.4787 16.6766L35.2583 16.2542C35.2583 16.0236 35.3117 15.8432 35.4195 15.7008C35.5289 15.5665 35.6959 15.4562 35.9032 15.3755C36.1055 15.3063 36.3556 15.2503 36.6468 15.2083C36.9034 15.1762 37.4118 15.1161 37.4776 15.1152L37.5574 15.2528C37.5459 15.331 37.4003 15.9346 37.3328 16.2097Z" fill="#2B2F32" fill-opacity="0.5"/>
<path d="M33.7002 11.2289C33.5587 10.9546 33.3465 10.7331 33.0783 10.5602C32.8036 10.3889 32.4778 10.2686 32.097 10.1995C31.7227 10.1328 31.2761 10.0965 30.7685 10.0957L28.4069 10.0973C28.1609 10.1015 27.9249 10.2925 27.8681 10.5272L26.2797 17.4498C26.2221 17.6845 26.3801 17.8789 26.6202 17.8789L27.7513 17.8772C27.9915 17.8789 28.2374 17.6862 28.2942 17.449L28.6767 15.7682C28.7326 15.5343 28.9753 15.3375 29.2196 15.3391H29.5429C30.9256 15.3391 31.9975 15.0542 32.769 14.4901C33.5316 13.9193 33.9174 13.1724 33.9174 12.2443C33.9133 11.8399 33.8433 11.4982 33.7002 11.2289ZM31.2645 13.4928C30.924 13.7382 30.4485 13.8633 29.8398 13.8633H29.5585C29.3158 13.8658 29.1587 13.6682 29.213 13.4326L29.5552 11.9659C29.6054 11.7312 29.8505 11.5344 30.0948 11.5369L30.4609 11.5344C30.8952 11.5369 31.2209 11.6085 31.443 11.7535C31.6643 11.8984 31.7688 12.1257 31.7712 12.4271C31.7737 12.8866 31.6034 13.2408 31.2645 13.4928Z" fill="#2B2F32" fill-opacity="0.5"/>
<path d="M43.3846 10.5822C43.4364 10.3459 43.2883 10.154 43.0457 10.1573H42.0339C41.8266 10.1573 41.6399 10.3113 41.5486 10.5007L41.4927 10.588L41.4417 10.812L40.0276 17.247L39.9816 17.4447L39.9832 17.4496C39.9363 17.6613 40.0663 17.821 40.267 17.8515L40.2843 17.8754H41.3347C41.5404 17.8754 41.7337 17.7189 41.8217 17.5262L41.876 17.4439L43.3879 10.583L43.3846 10.5822Z" fill="#2B2F32" fill-opacity="0.5"/>
<path d="M26.3112 11.9181C26.0438 11.9214 24.9572 11.9181 24.9572 11.9181C24.7137 11.9181 24.4011 12.1149 24.2465 12.3496C24.2465 12.3496 22.6293 15.1282 22.4722 15.4074L22.2846 15.4049L21.7812 12.3685C21.7253 12.1297 21.476 11.9255 21.1659 11.9255L20.1541 11.9271C19.9106 11.9271 19.7609 12.1215 19.8161 12.3587C19.8161 12.3587 20.5843 16.7357 20.7382 17.7659C20.8097 18.3342 20.7291 18.4355 20.7291 18.4355L19.7289 20.1797C19.5808 20.4169 19.6606 20.6104 19.9032 20.6104L21.073 20.6088C21.3164 20.6088 21.6364 20.4169 21.7812 20.1789L26.2807 12.5596C26.2807 12.5604 26.7134 11.909 26.3112 11.9181Z" fill="#2B2F32" fill-opacity="0.5"/>
<rect x="0.5" y="0.5" width="50" height="27" stroke="#2B2F32" stroke-opacity="0.5"/>
</svg>
