<svg
  width="20"
  height="20"
  viewBox="0 0 20 20"
  fill="none"
  xmlns="http://www.w3.org/2000/svg"
>
  <g clipPath="url(#clip0_271_6019)">
    <path
      d="M18.674 19.3426L17.1539 4.86709L17.0703 4.33394H13.7048V3.68255C13.7048 1.65207 12.0528 0 10.0223 0C7.99164 0 6.33957 1.65207 6.33957 3.68255V4.33394H2.96875L2.89049 4.86709L1.37041 19.3426L1.30859 20H1.96245H18.0818H18.75L18.674 19.3426ZM7.53006 3.68255C7.53006 2.3085 8.64807 1.19049 10.0223 1.19049C11.3963 1.19049 12.5143 2.3085 12.5143 3.68255V4.33394H7.53006V3.68255ZM2.62346 18.8095L4.01857 5.52443H6.33957V6.83623C6.33957 6.83623 6.62445 6.83623 6.95312 6.83623C7.28179 6.83623 7.53006 6.83623 7.53006 6.83623V5.52443H12.5143V6.83623C12.5143 6.83623 12.7963 6.83623 13.125 6.83623C13.4537 6.83623 13.7048 6.83623 13.7048 6.83623V5.52443H16.0258L17.4209 18.8095H2.62346Z"
      fill="currentColor"
    />
  </g>
  <defs>
    <clipPath id="clip0_271_6019">
      <rect
        width="20"
        height="20"
        fill="white"
      />
    </clipPath>
  </defs>
</svg>