<svg
  width="24"
  height="24"
  viewBox="0 0 24 24"
  fill="none"
  xmlns="http://www.w3.org/2000/svg"
>
  <path
    d="M19.3939 17.0183C20.3918 17.0079 21.2643 16.3339 21.5203 15.3674L23.9811 6.20332C24.0595 5.90551 23.8871 5.60248 23.5893 5.51889C23.5423 5.50844 23.4952 5.49799 23.4482 5.49799H4.93729L3.67815 0.84805C3.61546 0.607716 3.39602 0.435303 3.14524 0.435303H0V1.54815H2.70637L3.92371 6.0936C3.91849 6.13017 3.91849 6.16674 3.92371 6.20332L6.43154 15.3987C6.44722 15.4718 6.47334 15.5502 6.49946 15.6234L7.34586 18.7059C6.53081 19.1395 5.977 19.9964 5.977 20.9838C5.977 22.4102 7.13165 23.5648 8.55797 23.5648C9.9843 23.5648 11.139 22.4102 11.139 20.9838C11.139 20.5398 11.024 20.1166 10.8255 19.7508C10.7785 19.6672 10.7314 19.5836 10.674 19.5H17.2413C16.9488 19.918 16.7711 20.43 16.7711 20.9838C16.7711 22.4102 17.9258 23.5648 19.3521 23.5648C20.7784 23.5648 21.9331 22.4102 21.9331 20.9838C21.9331 20.3099 21.6771 19.6986 21.2539 19.2388C20.7993 18.7216 20.1306 18.3924 19.3834 18.3872H8.45871L8.06686 16.9504C8.23405 16.9922 8.40646 17.0183 8.57887 17.0183H19.3939ZM19.3573 19.5C20.1776 19.5 20.8411 20.1636 20.8411 20.9838C20.8411 21.8041 20.1776 22.4676 19.3573 22.4676C18.5371 22.4676 17.8735 21.8041 17.8735 20.9838C17.8735 20.1636 18.5371 19.5 19.3573 19.5ZM8.55797 19.5C9.37824 19.5 10.0366 20.1688 10.0366 20.9838C10.0366 21.8041 9.37302 22.4676 8.55275 22.4676C7.73248 22.4676 7.07417 21.8041 7.07417 20.9838C7.07417 20.1636 7.73771 19.5 8.55797 19.5ZM7.56529 15.2002L6.3166 10.6338L5.20375 6.62129H22.7011L20.4388 15.1166C20.3134 15.6025 19.8798 15.9421 19.3782 15.9525H8.56842C8.11388 15.9264 7.71681 15.6338 7.56529 15.2002Z"
    fill="currentColor"
  />
</svg>