<svg
  width="28"
  height="28"
  viewBox="0 0 28 28"
  fill="none"
  xmlns="http://www.w3.org/2000/svg"
>
  <g clipPath="url(#clip0_277_14455)">
    <path
      d="M20.5625 4.97656H7.4375C6.08057 4.97656 4.97656 6.08057 4.97656 7.4375V20.5625C4.97656 21.9194 6.08057 23.0234 7.4375 23.0234H20.5625C21.9194 23.0234 23.0234 21.9194 23.0234 20.5625V7.4375C23.0234 6.08057 21.9194 4.97656 20.5625 4.97656ZM14 19.7422C10.8341 19.7422 8.25781 17.1659 8.25781 14C8.25781 10.8341 10.8341 8.25781 14 8.25781C17.1659 8.25781 19.7422 10.8341 19.7422 14C19.7422 17.1659 17.1659 19.7422 14 19.7422ZM19.7422 9.89844C18.8377 9.89844 18.1016 9.16229 18.1016 8.25781C18.1016 7.35333 18.8377 6.61719 19.7422 6.61719C20.6467 6.61719 21.3828 7.35333 21.3828 8.25781C21.3828 9.16229 20.6467 9.89844 19.7422 9.89844Z"
      fill="currentColor"
    />
    <path
      d="M14 9.89844C11.7386 9.89844 9.89844 11.7386 9.89844 14C9.89844 16.2614 11.7386 18.1016 14 18.1016C16.2614 18.1016 18.1016 16.2614 18.1016 14C18.1016 11.7386 16.2614 9.89844 14 9.89844Z"
      fill="currentColor"
    />
    <path
      d="M28 0H2.86102e-06C2.86102e-06 0 0 1.89484 0 4.15625V23.8438C0 26.1052 2.86102e-06 28 2.86102e-06 28H28C28 28 28 26.1052 28 23.8438V4.15625C28 1.89484 28 0 28 0ZM24.6641 20.5625C24.6641 22.8239 22.8239 24.6641 20.5625 24.6641H7.4375C5.17608 24.6641 3.33594 22.8239 3.33594 20.5625V7.4375C3.33594 5.17609 5.17608 3.33594 7.4375 3.33594H20.5625C22.8239 3.33594 24.6641 5.17609 24.6641 7.4375V20.5625Z"
      fill="currentColor"
    />
  </g>
  <defs>
    <clipPath id="clip0_277_14455">
      <rect
        width="28"
        height="28"
        fill="white"
      />
    </clipPath>
  </defs>
</svg>