<svg
  width="28"
  height="28"
  viewBox="0 0 28 28"
  fill="none"
  xmlns="http://www.w3.org/2000/svg"
>
  <path
    d="M28 0H3.60608e-06C3.60608e-06 0 3.69549e-06 0.904053 3.69549e-06 2.01938V25.9806C3.69549e-06 27.0959 0 28 0 28H28C28 28 28 27.0959 28 25.9806V2.01938C28 0.904053 28 0 28 0ZM9.93177 21.1641H6.52213V10.9061H9.93177V21.1641ZM8.22705 9.50537H8.20484C7.06067 9.50537 6.32068 8.71774 6.32068 7.73337C6.32068 6.72678 7.08332 5.96094 8.2497 5.96094C9.41608 5.96094 10.1339 6.72678 10.1561 7.73337C10.1561 8.71774 9.41608 9.50537 8.22705 9.50537ZM22.2262 21.1641H18.817V15.6763C18.817 14.2971 18.3233 13.3566 17.0896 13.3566C16.1478 13.3566 15.5868 13.991 15.3403 14.6035C15.2501 14.8227 15.2281 15.129 15.2281 15.4355V21.1641H11.8187C11.8187 21.1641 11.8633 11.8685 11.8187 10.9061H15.2281V12.3585C15.6812 11.6595 16.4919 10.6653 18.3009 10.6653C20.5441 10.6653 22.2262 12.1314 22.2262 15.2822V21.1641Z"
    fill="currentColor"
  />
</svg>