<svg
  width="18"
  height="18"
  viewBox="0 0 16 16"
  fill="none"
  xmlns="http://www.w3.org/2000/svg"
>
  <path
    d="M7.99996 0.686035C6.44806 0.686035 4.95973 1.30252 3.86237 2.39988C2.76502 3.49723 2.14853 4.98557 2.14853 6.53746C2.14371 7.99362 2.6868 9.39833 3.6699 10.4725L7.72202 15.1866C7.75635 15.2267 7.79897 15.259 7.84695 15.2811C7.89493 15.3032 7.94713 15.3146 7.99996 15.3146C8.05279 15.3146 8.10498 15.3032 8.15297 15.2811C8.20095 15.259 8.24357 15.2267 8.2779 15.1866L12.33 10.4725C13.3131 9.39833 13.8562 7.99362 13.8514 6.53746C13.8514 4.98557 13.2349 3.49723 12.1375 2.39988C11.0402 1.30252 9.55185 0.686035 7.99996 0.686035V0.686035ZM11.7741 9.99711L7.99996 14.3893L4.22579 10.0008C3.5543 9.26827 3.11049 8.35619 2.94847 7.37578C2.78645 6.39537 2.91324 5.389 3.31336 4.47941C3.71348 3.56981 4.36965 2.79631 5.20183 2.25324C6.03402 1.71017 7.00625 1.421 7.99996 1.421C8.99367 1.421 9.9659 1.71017 10.7981 2.25324C11.6303 2.79631 12.2864 3.56981 12.6866 4.47941C13.0867 5.389 13.2135 6.39537 13.0514 7.37578C12.8894 8.35619 12.4456 9.26827 11.7741 10.0008V9.99711Z"
    fill="currentColor"
  />
  <path
    d="M7.99994 3.97754C7.49362 3.97754 6.99867 4.12768 6.57768 4.40898C6.15669 4.69027 5.82857 5.09009 5.63481 5.55787C5.44105 6.02565 5.39035 6.54038 5.48913 7.03697C5.58791 7.53356 5.83173 7.98971 6.18975 8.34773C6.54777 8.70576 7.00392 8.94957 7.50051 9.04835C7.9971 9.14713 8.51183 9.09643 8.97961 8.90267C9.44739 8.70891 9.84721 8.38079 10.1285 7.9598C10.4098 7.53881 10.5599 7.04386 10.5599 6.53754C10.5599 5.85858 10.2902 5.20744 9.81014 4.72735C9.33004 4.24725 8.6789 3.97754 7.99994 3.97754V3.97754ZM7.99994 8.36611C7.63829 8.36611 7.28475 8.25887 6.98404 8.05794C6.68334 7.85702 6.44896 7.57143 6.31056 7.2373C6.17216 6.90318 6.13595 6.53551 6.20651 6.1808C6.27706 5.82609 6.45122 5.50027 6.70695 5.24454C6.96268 4.98881 7.2885 4.81466 7.64321 4.7441C7.99791 4.67355 8.36558 4.70976 8.69971 4.84816C9.03383 4.98656 9.31942 5.22093 9.52034 5.52164C9.72127 5.82235 9.82851 6.17588 9.82851 6.53754C9.82851 7.02251 9.63586 7.48761 9.29294 7.83053C8.95001 8.17346 8.48491 8.36611 7.99994 8.36611Z"
    fill="currentColor"
  />
</svg>