<svg
  width="18"
  height="20"
  viewBox="0 0 18 20"
  fill="none"
  xmlns="http://www.w3.org/2000/svg"
>
  <path
    d="M2.88275 19.3749C2.90698 19.6319 2.99919 20.3124 2.99919 20.3124C2.99919 20.3124 3.65793 20.3132 3.91609 20.3124H13.8169C14.0714 20.3126 14.7229 20.3124 14.7229 20.3124C14.7229 20.3124 14.8164 19.6454 14.844 19.3924L16.3907 4.73779H1.604L2.88275 19.3749Z"
    fill="currentColor"
  />
  <path
    d="M17.2735 2.33328H12.8277V0.852866C12.8277 0.598699 12.8277 -0.105469 12.8277 -0.105469C12.8277 -0.105469 12.1235 -0.105469 11.8693 -0.105469H6.12893C5.87476 -0.105469 5.17059 -0.105469 5.17059 -0.105469C5.17059 -0.105469 5.17059 0.598699 5.17059 0.852866V2.33328H0.726009C0.614532 2.33372 0.305176 2.33328 0.305176 2.33328C0.305176 2.33328 0.305615 2.64264 0.305176 2.75412V3.90495C0.305615 4.01643 0.305176 4.32579 0.305176 4.32579C0.305176 4.32579 0.614532 4.32535 0.726009 4.32579H17.2735C17.385 4.32535 17.6944 4.32579 17.6944 4.32579C17.6944 4.32579 17.6939 4.01643 17.6944 3.90495V2.75412C17.6939 2.64264 17.6944 2.33328 17.6944 2.33328C17.6944 2.33328 17.385 2.33372 17.2735 2.33328ZM12.0027 2.33328H5.99684V0.852866C5.99684 0.83552 5.99973 0.777724 5.99973 0.777724V0.720782H6.07265C6.07265 0.720782 6.11158 0.720782 6.12893 0.720782H11.8706C11.8879 0.720782 11.9192 0.720782 11.9192 0.720782H11.9997V0.777724C11.9997 0.777724 12.0027 0.83552 12.0027 0.852866V2.33328Z"
    fill="currentColor"
  />
</svg>