<svg width="178" height="47" viewBox="0 0 178 47" fill="none" xmlns="http://www.w3.org/2000/svg">
<path d="M60.4526 33.8461C59.6505 33.8895 58.8572 33.6624 58.2006 33.2015C57.9263 32.999 57.7056 32.733 57.5575 32.4266C57.4095 32.12 57.3387 31.7822 57.3511 31.4424V18.9941C57.3446 18.9414 57.3501 18.8879 57.3675 18.8376C57.3848 18.7874 57.4134 18.7419 57.4511 18.7043C57.4889 18.6667 57.5346 18.6382 57.585 18.621C57.6355 18.6037 57.6893 18.5982 57.7421 18.6047H60.0076C60.2638 18.6047 60.3852 18.7389 60.3852 18.9941V30.4755C60.3852 30.9858 60.6144 31.2409 61.0864 31.2409C61.2865 31.2491 61.4866 31.2266 61.6797 31.1738C61.9494 31.1738 62.0977 31.2544 62.1112 31.4961L62.3135 33.1747C62.3232 33.2237 62.3223 33.274 62.3108 33.3226C62.2993 33.3711 62.2775 33.4168 62.2467 33.4561C62.2161 33.4956 62.1773 33.5281 62.1331 33.5513C62.0887 33.5746 62.0399 33.5881 61.9899 33.5909C61.4936 33.7542 60.9751 33.8403 60.4526 33.8461Z" fill="#D5D5D6"/>
<path d="M73.1958 32.4095C72.0575 33.3462 70.6269 33.8584 69.1503 33.8584C67.6737 33.8584 66.2432 33.3462 65.1048 32.4095C64.1044 31.4037 63.543 30.0451 63.543 28.6294C63.543 27.2136 64.1044 25.855 65.1048 24.8492C66.2454 23.9174 67.6751 23.4082 69.1503 23.4082C70.6255 23.4082 72.0552 23.9174 73.1958 24.8492C74.1733 25.8643 74.719 27.2163 74.719 28.6226C74.719 30.029 74.1733 31.381 73.1958 32.3961V32.4095ZM67.2355 30.6369C67.7638 31.1135 68.451 31.3774 69.1638 31.3774C69.8766 31.3774 70.5639 31.1135 71.0921 30.6369C71.5703 30.0896 71.8335 29.3885 71.8335 28.6629C71.8335 27.9375 71.5703 27.2364 71.0921 26.6889C70.5639 26.2125 69.8766 25.9485 69.1638 25.9485C68.451 25.9485 67.7638 26.2125 67.2355 26.6889C66.7574 27.2364 66.4941 27.9375 66.4941 28.6629C66.4941 29.3885 66.7574 30.0896 67.2355 30.6369Z" fill="#D5D5D6"/>
<path d="M87.193 23.7482C87.4492 23.7482 87.5706 23.8825 87.5706 24.1377V33.7659C87.5942 34.4159 87.472 35.0627 87.2131 35.6596C86.9542 36.2567 86.565 36.7887 86.0738 37.2171C84.9834 38.143 83.5812 38.6228 82.1497 38.5599C80.8568 38.6052 79.581 38.2536 78.4953 37.5528C78.0317 37.2497 77.6356 36.8548 77.3318 36.3928C77.0279 35.9308 76.8226 35.4115 76.7288 34.8671C76.7288 34.5985 76.7288 34.4777 77.0929 34.4777H79.3583C79.4545 34.4809 79.5478 34.5119 79.6267 34.5667C79.7057 34.6215 79.7671 34.6977 79.8033 34.7865C79.9503 35.1943 80.2432 35.5339 80.6259 35.7399C81.0924 35.9796 81.6115 36.0997 82.1362 36.0891C82.4528 36.1064 82.7697 36.0606 83.0684 35.9545C83.3671 35.8486 83.6415 35.6842 83.8758 35.4714C84.0898 35.2487 84.2562 34.9851 84.3651 34.6967C84.4741 34.4082 84.5232 34.1007 84.5095 33.7928V32.9468C83.6984 33.5409 82.7112 33.8481 81.7047 33.8197C81.0002 33.8452 80.298 33.7287 79.6398 33.4772C78.9817 33.2256 78.3815 32.8443 77.875 32.3559C76.9029 31.3544 76.3594 30.0159 76.3594 28.6228C76.3594 27.2299 76.9029 25.8913 77.875 24.8897C78.3839 24.4057 78.9849 24.0281 79.6426 23.779C80.3004 23.5299 81.0015 23.4144 81.7047 23.4394C82.7403 23.4121 83.7541 23.7392 84.577 24.3659V24.1511C84.5708 24.0997 84.5762 24.0474 84.5927 23.9983C84.6093 23.9493 84.6367 23.9044 84.6728 23.8671C84.709 23.8297 84.7531 23.801 84.8018 23.7827C84.8506 23.7645 84.9028 23.7574 84.9545 23.7617L87.193 23.7482ZM81.9609 31.4294C82.3083 31.4401 82.6539 31.3747 82.9731 31.2377C83.2923 31.1009 83.5775 30.8959 83.8083 30.6371C84.2567 30.0606 84.5 29.352 84.5 28.6228C84.5 27.8936 84.2567 27.1851 83.8083 26.6085C83.5783 26.3534 83.2948 26.1513 82.9781 26.0167C82.6612 25.8822 82.3187 25.8184 81.9744 25.8297C81.623 25.8186 81.2735 25.8838 80.9498 26.0206C80.6262 26.1574 80.3363 26.3626 80.1 26.6219C79.6034 27.1735 79.3422 27.896 79.3718 28.6362C79.3475 29.3692 79.6029 30.0841 80.0865 30.6371C80.3233 30.8957 80.6134 31.1005 80.9369 31.2372C81.2604 31.3739 81.6096 31.4394 81.9609 31.4294Z" fill="#D5D5D6"/>
<path d="M99.208 32.4095C98.0675 33.3413 96.6378 33.8505 95.1626 33.8505C93.6873 33.8505 92.2577 33.3413 91.1171 32.4095C90.1388 31.3922 89.5927 30.038 89.5927 28.6294C89.5927 27.2209 90.1388 25.8666 91.1171 24.8492C92.2587 23.9198 93.688 23.4121 95.1626 23.4121C96.6371 23.4121 98.0664 23.9198 99.208 24.8492C100.186 25.8643 100.731 27.2163 100.731 28.6227C100.731 30.029 100.186 31.381 99.208 32.3961V32.4095ZM93.2342 30.6369C93.4927 30.8819 93.7975 31.0732 94.1308 31.2C94.4642 31.3268 94.8194 31.3865 95.1761 31.3755C95.5304 31.3847 95.8832 31.3242 96.2141 31.1975C96.545 31.0707 96.8475 30.8803 97.1044 30.6369C97.5747 30.0858 97.833 29.3862 97.833 28.6629C97.833 27.9397 97.5747 27.2401 97.1044 26.6889C96.8475 26.4458 96.545 26.2552 96.2141 26.1286C95.8832 26.0018 95.5304 25.9412 95.1761 25.9504C94.8194 25.9395 94.4642 25.9991 94.1308 26.1259C93.7975 26.2527 93.4927 26.4441 93.2342 26.6889C92.764 27.2401 92.5058 27.9397 92.5058 28.6629C92.5058 29.3862 92.764 30.0858 93.2342 30.6369Z" fill="#D5D5D6"/>
<path d="M105.6 21.4653C105.243 21.776 104.786 21.9473 104.312 21.9473C103.838 21.9473 103.381 21.776 103.024 21.4653C102.863 21.3134 102.734 21.1303 102.646 20.9271C102.558 20.7239 102.512 20.5049 102.512 20.2836C102.512 20.0623 102.558 19.8434 102.646 19.6401C102.734 19.4369 102.863 19.2538 103.024 19.1019C103.384 18.7989 103.841 18.6328 104.312 18.6328C104.783 18.6328 105.24 18.7989 105.6 19.1019C105.762 19.2538 105.89 19.4369 105.978 19.6401C106.066 19.8434 106.112 20.0623 106.112 20.2836C106.112 20.5049 106.066 20.7239 105.978 20.9271C105.89 21.1303 105.762 21.3134 105.6 21.4653ZM105.883 33.8464C105.081 33.8857 104.29 33.659 103.631 33.2019C103.361 32.9964 103.144 32.7295 102.999 32.4234C102.853 32.1174 102.783 31.7811 102.795 31.4427V24.1376C102.789 24.0849 102.794 24.0314 102.811 23.9811C102.829 23.9309 102.857 23.8854 102.895 23.8478C102.933 23.8102 102.979 23.7817 103.029 23.7645C103.079 23.7472 103.133 23.7417 103.186 23.7482H105.452C105.708 23.7482 105.829 23.8824 105.829 24.1376V30.4759C105.829 30.9862 106.058 31.2413 106.517 31.2413C106.721 31.2487 106.926 31.226 107.124 31.1742C107.393 31.1742 107.542 31.2547 107.555 31.4964L107.757 33.175C107.767 33.224 107.766 33.2744 107.755 33.323C107.743 33.3715 107.721 33.4171 107.691 33.4565C107.66 33.496 107.621 33.5285 107.577 33.5517C107.533 33.5749 107.484 33.5885 107.434 33.5913C106.933 33.7555 106.41 33.8416 105.883 33.8464Z" fill="#D5D5D6"/>
<path d="M116.091 23.4257C116.799 23.3979 117.505 23.5119 118.167 23.761C118.83 24.0102 119.435 24.3893 119.948 24.876C120.901 25.8952 121.432 27.2363 121.432 28.6293C121.432 30.0222 120.901 31.3635 119.948 32.3826C119.438 32.8736 118.833 33.2565 118.17 33.508C117.507 33.7597 116.8 33.8747 116.091 33.8463C115.081 33.8687 114.092 33.5623 113.273 32.9734V37.8211C113.273 38.0763 113.138 38.1971 112.882 38.1971H110.616C110.565 38.2068 110.511 38.2037 110.461 38.1883C110.411 38.1727 110.365 38.1453 110.328 38.1082C110.291 38.0712 110.263 38.0258 110.248 37.9757C110.232 37.9257 110.229 37.8727 110.239 37.8211V26.8097C110.255 26.702 110.245 26.5922 110.211 26.4888C110.176 26.3855 110.118 26.2915 110.041 26.2145C109.963 26.1376 109.869 26.0797 109.765 26.0455C109.662 26.0112 109.551 26.0017 109.443 26.0174H108.998C108.701 26.0174 108.553 25.91 108.553 25.6951V24.1106C108.546 24.0125 108.573 23.915 108.629 23.8345C108.686 23.7538 108.768 23.6948 108.863 23.6674C109.33 23.4986 109.823 23.4167 110.32 23.4257C110.814 23.3821 111.311 23.4867 111.746 23.7258C112.181 23.9651 112.534 24.3282 112.76 24.7686C113.195 24.331 113.714 23.9863 114.287 23.7554C114.859 23.5245 115.473 23.4123 116.091 23.4257ZM113.987 30.6368C114.228 30.8871 114.517 31.0863 114.837 31.2223C115.156 31.3584 115.501 31.4285 115.848 31.4285C116.196 31.4285 116.54 31.3584 116.86 31.2223C117.18 31.0863 117.469 30.8871 117.709 30.6368C118.216 30.0743 118.482 29.3372 118.451 28.5823C118.486 27.8268 118.22 27.0879 117.709 26.5277C117.469 26.2775 117.18 26.0784 116.86 25.9423C116.54 25.8062 116.196 25.7361 115.848 25.7361C115.501 25.7361 115.156 25.8062 114.837 25.9423C114.517 26.0784 114.228 26.2775 113.987 26.5277C113.497 27.0979 113.241 27.832 113.273 28.5823C113.245 29.332 113.5 30.0648 113.987 30.6368Z" fill="#D5D5D6"/>
<path d="M127.796 33.8465C126.585 33.896 125.385 33.6077 124.33 33.0139C123.907 32.7601 123.547 32.4146 123.276 32.0031C123.005 31.5917 122.831 31.1248 122.766 30.637C122.766 30.3685 122.86 30.2342 123.157 30.2342H125.139C125.234 30.2379 125.325 30.2673 125.404 30.3196C125.482 30.3717 125.545 30.4443 125.584 30.5296C125.868 31.2547 126.609 31.6173 127.796 31.6173C128.21 31.6363 128.622 31.5531 128.996 31.3756C129.125 31.3176 129.236 31.2257 129.317 31.1099C129.397 30.994 129.445 30.8583 129.455 30.7176C129.455 30.3685 129.239 30.1267 128.807 29.9656C128.296 29.796 127.766 29.6833 127.23 29.6299C126.594 29.5582 125.963 29.4461 125.342 29.2942C124.737 29.158 124.188 28.8446 123.764 28.3945C123.514 28.0886 123.331 27.7347 123.224 27.3551C123.118 26.9755 123.091 26.578 123.145 26.1876C123.2 25.7971 123.334 25.4219 123.54 25.0855C123.747 24.749 124.02 24.4584 124.344 24.2316C125.316 23.6151 126.456 23.3147 127.607 23.3722C128.721 23.3347 129.824 23.6092 130.79 24.1645C131.179 24.384 131.514 24.6871 131.77 25.0518C132.027 25.4165 132.199 25.8336 132.273 26.2728C132.273 26.5413 132.152 26.6756 131.909 26.6756H129.913C129.829 26.6806 129.745 26.6602 129.673 26.6171C129.601 26.574 129.544 26.51 129.508 26.4339C129.375 26.1159 129.124 25.861 128.807 25.7222C128.45 25.5361 128.051 25.4435 127.648 25.4536C127.252 25.4323 126.858 25.5108 126.501 25.6819C126.376 25.7302 126.268 25.8148 126.191 25.925C126.114 26.0351 126.072 26.1656 126.07 26.2996C126.078 26.4833 126.146 26.6594 126.263 26.802C126.379 26.9446 126.538 27.0461 126.717 27.0919C127.235 27.2863 127.773 27.4214 128.322 27.4948C128.953 27.5775 129.578 27.694 130.196 27.8439C130.801 27.9802 131.35 28.2935 131.774 28.7436C132.001 28.9916 132.176 29.2818 132.289 29.5977C132.403 29.9134 132.452 30.2484 132.435 30.5833C132.446 31.0475 132.337 31.5068 132.117 31.9164C131.897 32.3258 131.575 32.6716 131.181 32.9199C130.173 33.5641 128.993 33.8872 127.796 33.8465Z" fill="#D5D5D6"/>
<path d="M146.688 33.1749C146.696 33.2226 146.694 33.2713 146.683 33.3182C146.671 33.3652 146.65 33.4092 146.621 33.448C146.592 33.4868 146.556 33.5195 146.514 33.5441C146.472 33.5686 146.427 33.5846 146.378 33.5912C145.886 33.7513 145.372 33.8373 144.854 33.8463C144.342 33.8992 143.824 33.8195 143.352 33.6148C142.879 33.4102 142.467 33.0875 142.157 32.678C141.205 33.4936 139.973 33.912 138.719 33.8463C138.136 33.8731 137.555 33.7781 137.011 33.5677C136.468 33.3573 135.974 33.0359 135.563 32.6243C135.155 32.1931 134.838 31.6842 134.632 31.1281C134.425 30.572 134.334 29.9802 134.363 29.388V24.1375C134.363 23.8823 134.484 23.748 134.741 23.748H137.006C137.262 23.748 137.384 23.8823 137.384 24.1375V28.9852C137.359 29.5892 137.566 30.1798 137.963 30.6369C138.162 30.8464 138.403 31.011 138.67 31.1199C138.937 31.2288 139.226 31.2793 139.514 31.268C139.81 31.2809 140.105 31.2354 140.383 31.1339C140.66 31.0325 140.915 30.8773 141.132 30.6772C141.337 30.4664 141.498 30.2158 141.602 29.9409C141.707 29.666 141.753 29.3727 141.739 29.0792V24.1375C141.739 23.8823 141.861 23.748 142.117 23.748H144.409C144.665 23.748 144.787 23.8823 144.787 24.1375V30.4623C144.787 30.986 145.016 31.2412 145.461 31.2412C145.67 31.2492 145.879 31.2267 146.081 31.174C146.133 31.1598 146.187 31.1573 146.238 31.1667C146.29 31.1759 146.339 31.1969 146.382 31.2279C146.425 31.2589 146.46 31.2992 146.486 31.3457C146.51 31.3921 146.524 31.4437 146.526 31.4963L146.688 33.1749Z" fill="#D5D5D6"/>
<path d="M168.116 33.1748C168.128 33.2229 168.129 33.2731 168.12 33.3217C168.109 33.3702 168.089 33.4161 168.059 33.4559C168.029 33.4956 167.992 33.5284 167.947 33.5517C167.904 33.5752 167.855 33.5887 167.805 33.5911C167.304 33.7534 166.782 33.8395 166.255 33.8462C165.452 33.8875 164.661 33.6607 164.003 33.2017C163.718 33.0051 163.488 32.7417 163.33 32.4349C163.172 32.128 163.092 31.7871 163.099 31.4425V28.2868C163.128 27.6847 162.925 27.0942 162.533 26.6351C162.344 26.4252 162.109 26.2598 161.849 26.1506C161.588 26.0415 161.306 25.9915 161.023 26.0039C160.768 25.9944 160.514 26.0426 160.28 26.1449C160.046 26.2473 159.84 26.4012 159.674 26.5948C159.318 27.0448 159.136 27.6072 159.162 28.1794V33.1345C159.162 33.3897 159.04 33.5239 158.784 33.5239H156.505C156.453 33.5305 156.399 33.5249 156.349 33.5077C156.297 33.4904 156.252 33.4619 156.214 33.4243C156.176 33.3868 156.148 33.3412 156.13 33.291C156.113 33.2407 156.107 33.1873 156.114 33.1345V28.2868C156.144 27.6912 155.956 27.105 155.588 26.6351C155.424 26.4377 155.217 26.2788 154.984 26.1698C154.752 26.0607 154.497 26.0041 154.24 26.0039C153.965 25.9929 153.691 26.0398 153.435 26.1417C153.178 26.2435 152.948 26.3979 152.756 26.5948C152.371 27.0304 152.172 27.5995 152.203 28.1794V33.1345C152.21 33.1873 152.205 33.2407 152.187 33.291C152.17 33.3412 152.141 33.3868 152.104 33.4243C152.066 33.4619 152.02 33.4904 151.97 33.5077C151.919 33.5249 151.865 33.5305 151.812 33.5239H149.614C149.358 33.5239 149.237 33.3897 149.237 33.1345V26.8097C149.253 26.702 149.244 26.5921 149.208 26.4887C149.175 26.3855 149.117 26.2915 149.039 26.2145C148.962 26.1376 148.867 26.0797 148.763 26.0454C148.66 26.0112 148.549 26.0017 148.441 26.0174H147.996C147.7 26.0174 147.551 25.9099 147.551 25.6951V24.1105C147.544 24.0125 147.571 23.915 147.628 23.8344C147.685 23.7537 147.767 23.6948 147.861 23.6674C148.328 23.4986 148.821 23.4167 149.318 23.4257C149.794 23.3852 150.272 23.4798 150.697 23.6984C151.122 23.917 151.475 24.2507 151.718 24.6611C152.172 24.2318 152.712 23.9004 153.301 23.6878C153.89 23.4752 154.517 23.386 155.143 23.4257C155.751 23.3961 156.357 23.5096 156.912 23.7569C157.468 24.0043 157.956 24.3784 158.339 24.8491C158.785 24.3661 159.334 23.9879 159.945 23.7416C160.556 23.4955 161.214 23.3877 161.872 23.4257C162.46 23.3983 163.048 23.4927 163.598 23.7031C164.148 23.9134 164.649 24.235 165.068 24.6477C165.478 25.078 165.795 25.5869 166.001 26.1432C166.207 26.6994 166.299 27.2917 166.268 27.8839V30.4757C166.268 30.9859 166.497 31.2411 166.929 31.2411C167.138 31.2508 167.347 31.2282 167.549 31.1739C167.828 31.1739 167.977 31.2814 167.994 31.4962L168.116 33.1748Z" fill="#D5D5D6"/>
<path d="M9.99227 22.0023C10.9871 18.0203 13.2912 14.4842 16.5377 11.9571C19.7842 9.42998 23.7863 8.05713 27.9069 8.05713C32.0275 8.05713 36.0296 9.42998 39.2761 11.9571C42.5226 14.4842 44.8266 18.0203 45.8215 22.0023H44.2033C41.4736 21.9623 38.7998 22.7747 36.5574 24.3254C36.428 24.4188 36.2928 24.504 36.1529 24.5806H35.9641C35.8241 24.504 35.689 24.4188 35.5595 24.3254C33.2973 22.8106 30.633 22.0015 27.9069 22.0015C25.1808 22.0015 22.5165 22.8106 20.2542 24.3254C20.1248 24.4188 19.9897 24.504 19.8497 24.5806H19.6609C19.5209 24.504 19.3858 24.4188 19.2564 24.3254C17.014 22.7747 14.3402 21.9623 11.6105 22.0023H9.99227ZM41.2906 30.422C42.1213 29.7778 43.1508 29.4408 44.2033 29.4686H46.3744V25.158H44.2033C42.3494 25.1357 40.538 25.7103 39.0386 26.7963C38.1949 27.4158 37.1742 27.75 36.1259 27.75C35.0776 27.75 34.0569 27.4158 33.2132 26.7963C31.6758 25.7306 29.8475 25.1592 27.9743 25.1592C26.1011 25.1592 24.2729 25.7306 22.7355 26.7963C21.8917 27.4158 20.871 27.75 19.8227 27.75C18.7744 27.75 17.7537 27.4158 16.91 26.7963C15.3921 25.6964 13.5547 25.1211 11.6779 25.158H9.43939V29.4686H11.6105C12.663 29.4408 13.6925 29.7778 14.5232 30.422C16.0578 31.4885 17.884 32.0603 19.7553 32.0603C21.6266 32.0603 23.4528 31.4885 24.9874 30.422C25.8192 29.7799 26.8479 29.4431 27.9001 29.4686C28.953 29.4385 29.9833 29.7758 30.8129 30.422C32.3503 31.4878 34.1786 32.0591 36.0517 32.0591C37.9249 32.0591 39.7532 31.4878 41.2906 30.422ZM41.2906 38.13C42.1213 37.4858 43.1508 37.1488 44.2033 37.1766H46.3744V32.866H44.2033C42.3494 32.8437 40.538 33.4183 39.0386 34.5043C38.1949 35.1238 37.1742 35.458 36.1259 35.458C35.0776 35.458 34.0569 35.1238 33.2132 34.5043C31.6758 33.4386 29.8475 32.8674 27.9743 32.8674C26.1011 32.8674 24.2729 33.4386 22.7355 34.5043C21.8917 35.1238 20.871 35.458 19.8227 35.458C18.7744 35.458 17.7537 35.1238 16.91 34.5043C15.3921 33.4045 13.5547 32.8291 11.6779 32.866H9.43939V37.1766H11.6105C12.663 37.1488 13.6925 37.4858 14.5232 38.13C16.0578 39.1965 17.884 39.7683 19.7553 39.7683C21.6266 39.7683 23.4528 39.1965 24.9874 38.13C25.8192 37.4879 26.8479 37.1511 27.9001 37.1766C28.953 37.1465 29.9833 37.4838 30.8129 38.13C32.3503 39.1958 34.1786 39.7671 36.0517 39.7671C37.9249 39.7671 39.7532 39.1958 41.2906 38.13Z" fill="#D5D5D6"/>
</svg>
