<svg width="120" height="46" viewBox="0 0 120 46" fill="none" xmlns="http://www.w3.org/2000/svg">
<path d="M31.1246 1H11.3129L1 18.7762L11.1094 36.0436L31.1246 1Z" stroke="#D5D5D6" stroke-width="1.7" stroke-miterlimit="10"/>
<path d="M6.36002 44.3888H26.1717L36.4846 26.6126L26.4091 9.34521L6.36002 44.3888Z" stroke="#D5D5D6" stroke-width="1.7" stroke-miterlimit="10"/>
<path d="M55.813 16.7677C54.4832 16.7677 53.4044 16.5913 52.5767 16.2385C51.7489 15.8721 51.1247 15.37 50.7041 14.7322C50.297 14.0945 50.0595 13.3753 49.9917 12.5747H51.5793C51.62 13.226 51.8371 13.7552 52.2306 14.1623C52.6242 14.5558 53.1398 14.8476 53.7776 15.0376C54.4289 15.2275 55.1413 15.3225 55.9148 15.3225C57.0546 15.3225 57.957 15.1258 58.6219 14.7322C59.2868 14.3251 59.6193 13.7281 59.6193 12.941C59.6193 12.4661 59.4497 12.0862 59.1104 11.8012C58.7848 11.5027 58.3438 11.2584 57.7874 11.0684C57.2446 10.8785 56.6476 10.7088 55.9962 10.5596C55.3449 10.3967 54.6867 10.2271 54.0218 10.0507C53.3705 9.87431 52.7666 9.65041 52.2103 9.37902C51.6675 9.10763 51.2265 8.7616 50.8872 8.34094C50.5616 7.90671 50.3987 7.35714 50.3987 6.69223C50.3987 5.59309 50.8194 4.6975 51.6607 4.00545C52.5156 3.3134 53.7844 2.96737 55.467 2.96737C56.6611 2.96737 57.6449 3.15056 58.4184 3.51694C59.1919 3.86975 59.7686 4.3379 60.1485 4.9214C60.542 5.50489 60.7592 6.13588 60.7999 6.81436H59.2326C59.1512 6.13588 58.8119 5.56595 58.2148 5.10459C57.6178 4.62965 56.7018 4.39218 55.467 4.39218C54.7071 4.39218 54.0897 4.46681 53.6147 4.61608C53.1398 4.76535 52.7734 4.96211 52.5156 5.20636C52.2714 5.43704 52.1017 5.6813 52.0067 5.93912C51.9253 6.19694 51.8846 6.44119 51.8846 6.67188C51.8846 7.11968 52.0475 7.48606 52.3731 7.77102C52.7124 8.04241 53.1534 8.27309 53.6962 8.46307C54.2525 8.63947 54.8632 8.80231 55.5281 8.95158C56.193 9.10084 56.8511 9.27046 57.5024 9.46044C58.1674 9.63684 58.7712 9.86753 59.314 10.1525C59.8703 10.4239 60.3114 10.7767 60.637 11.2109C60.9763 11.6451 61.1459 12.2015 61.1459 12.88C61.1459 14.1284 60.671 15.0918 59.7211 15.7703C58.7712 16.4352 57.4685 16.7677 55.813 16.7677Z" fill="#D5D5D6"/>
<path d="M64.2852 16.6048V7.77102H62.2091V6.42763H64.2852V2.78418H65.8118V6.42763H68.1526V7.77102H65.8118V16.6048H64.2852Z" fill="#D5D5D6"/>
<path d="M73.9212 16.7677C72.9306 16.7677 72.0621 16.537 71.3158 16.0756C70.583 15.6007 70.0131 14.9629 69.606 14.1623C69.1989 13.3617 68.9954 12.4797 68.9954 11.5162C68.9954 10.5392 69.1989 9.6572 69.606 8.87016C70.0131 8.06955 70.583 7.43856 71.3158 6.97719C72.0621 6.50226 72.9306 6.26479 73.9212 6.26479C74.7625 6.26479 75.4817 6.42763 76.0787 6.7533C76.6894 7.07897 77.1847 7.51998 77.5646 8.07633V6.42763H79.0912V16.6048H77.5646V14.9765C77.1847 15.5193 76.6894 15.9535 76.0787 16.2792C75.4817 16.6048 74.7625 16.7677 73.9212 16.7677ZM74.1247 15.3836C74.8846 15.3836 75.5224 15.2072 76.038 14.8544C76.5672 14.5016 76.9675 14.0334 77.2389 13.4499C77.5103 12.8528 77.646 12.2083 77.646 11.5162C77.646 10.8106 77.5103 10.1661 77.2389 9.58256C76.9675 8.99907 76.5672 8.53092 76.038 8.17811C75.5224 7.8253 74.8846 7.64889 74.1247 7.64889C73.3784 7.64889 72.7338 7.8253 72.191 8.17811C71.6482 8.53092 71.2344 8.99907 70.9494 9.58256C70.6645 10.1661 70.522 10.8106 70.522 11.5162C70.522 12.2083 70.6645 12.8528 70.9494 13.4499C71.2344 14.0334 71.6482 14.5016 72.191 14.8544C72.7338 15.2072 73.3784 15.3836 74.1247 15.3836Z" fill="#D5D5D6"/>
<path d="M81.7317 16.6048V6.42763H83.2583V8.93122C83.3126 8.75482 83.4143 8.52413 83.5636 8.23917C83.7264 7.94064 83.9571 7.64211 84.2557 7.34358C84.5542 7.04504 84.9273 6.794 85.3751 6.59046C85.8365 6.37335 86.3793 6.26479 87.0035 6.26479H87.1053V7.79137H86.9221C86.1622 7.79137 85.5041 8.0017 84.9477 8.42236C84.4049 8.82945 83.9843 9.36545 83.6857 10.0304C83.4008 10.6817 83.2583 11.3805 83.2583 12.1269V16.6048H81.7317Z" fill="#D5D5D6"/>
<path d="M89.8476 16.6048V7.77102H87.7714V6.42763H89.8476V2.78418H91.3741V6.42763H93.7149V7.77102H91.3741V16.6048H89.8476Z" fill="#D5D5D6"/>
<path d="M99.3566 16.7677C98.6645 16.7677 98.0064 16.6048 97.3822 16.2792C96.758 15.9399 96.2491 15.4446 95.8556 14.7933C95.4757 14.1284 95.2857 13.3142 95.2857 12.3508V6.42763H96.8123V12.3101C96.8123 13.2328 97.0769 13.9791 97.6061 14.549C98.1489 15.1054 98.8342 15.3836 99.6619 15.3836C100.232 15.3836 100.747 15.2547 101.209 14.9968C101.67 14.7255 102.037 14.3591 102.308 13.8977C102.593 13.4363 102.735 12.9003 102.735 12.2897V6.42763H104.262V16.6048H102.735V15.0172C102.369 15.5057 101.921 15.9196 101.392 16.2588C100.863 16.5981 100.184 16.7677 99.3566 16.7677Z" fill="#D5D5D6"/>
<path d="M106.916 20.635V6.42763H108.443V8.05598C108.823 7.49963 109.311 7.0654 109.908 6.7533C110.519 6.42763 111.245 6.26479 112.086 6.26479C113.077 6.26479 113.939 6.50226 114.671 6.97719C115.418 7.43856 115.994 8.06955 116.402 8.87016C116.809 9.6572 117.012 10.5392 117.012 11.5162C117.012 12.4797 116.809 13.3617 116.402 14.1623C115.994 14.9629 115.418 15.6007 114.671 16.0756C113.939 16.537 113.077 16.7677 112.086 16.7677C111.245 16.7677 110.519 16.6048 109.908 16.2792C109.311 15.9399 108.823 15.4989 108.443 14.9561V20.635H106.916ZM111.883 15.3836C112.643 15.3836 113.287 15.2072 113.817 14.8544C114.359 14.5016 114.773 14.0334 115.058 13.4499C115.343 12.8528 115.486 12.2083 115.486 11.5162C115.486 10.8106 115.343 10.1661 115.058 9.58256C114.773 8.99907 114.359 8.53092 113.817 8.17811C113.287 7.8253 112.643 7.64889 111.883 7.64889C111.137 7.64889 110.499 7.8253 109.97 8.17811C109.44 8.53092 109.04 8.99907 108.769 9.58256C108.497 10.1661 108.362 10.8106 108.362 11.5162C108.362 12.2083 108.497 12.8528 108.769 13.4499C109.04 14.0334 109.44 14.5016 109.97 14.8544C110.499 15.2072 111.137 15.3836 111.883 15.3836Z" fill="#D5D5D6"/>
<path d="M54.8564 41.0302L49.4014 27.5555H51.0704L55.7316 39.3L60.3928 27.5555H62.0618L56.6068 41.0302H54.8564Z" fill="#D5D5D6"/>
<path d="M67.029 41.193C65.9977 41.193 65.0953 40.9623 64.3218 40.501C63.5483 40.026 62.9445 39.3883 62.5103 38.5876C62.0896 37.787 61.8793 36.905 61.8793 35.9416C61.8793 34.9646 62.0828 34.0825 62.4899 33.2955C62.897 32.4949 63.4805 31.8639 64.2404 31.4025C65.0003 30.9276 65.8959 30.6901 66.9272 30.6901C67.972 30.6901 68.8676 30.9276 69.614 31.4025C70.3739 31.8639 70.9574 32.4949 71.3645 33.2955C71.7715 34.0825 71.9751 34.9646 71.9751 35.9416V36.5522H63.4466C63.528 37.1493 63.718 37.6988 64.0165 38.2009C64.3286 38.6894 64.7425 39.0829 65.2581 39.3815C65.7738 39.6664 66.3708 39.8089 67.0493 39.8089C67.7685 39.8089 68.3724 39.6529 68.8609 39.3408C69.3494 39.0151 69.7293 38.6012 70.0007 38.0991H71.6698C71.317 39.0083 70.7538 39.7546 69.9804 40.3381C69.2205 40.908 68.2367 41.193 67.029 41.193ZM63.4669 35.1274H70.3874C70.2517 34.2589 69.8854 33.533 69.2883 32.9495C68.6912 32.366 67.9042 32.0742 66.9272 32.0742C65.9502 32.0742 65.1631 32.366 64.5661 32.9495C63.9826 33.533 63.6162 34.2589 63.4669 35.1274Z" fill="#D5D5D6"/>
<path d="M73.8404 41.0302V30.853H75.367V32.4406C75.7333 31.9521 76.1811 31.5382 76.7104 31.199C77.2396 30.8597 77.9181 30.6901 78.7458 30.6901C79.4514 30.6901 80.1095 30.8597 80.7202 31.199C81.3444 31.5247 81.8465 32.0199 82.2264 32.6849C82.6199 33.3362 82.8167 34.1436 82.8167 35.107V41.0302H81.2901V35.1477C81.2901 34.225 81.0255 33.4855 80.4963 32.9291C79.9671 32.3592 79.2818 32.0742 78.4405 32.0742C77.8706 32.0742 77.3549 32.2031 76.8935 32.461C76.4322 32.7188 76.059 33.0852 75.7741 33.5601C75.5027 34.0215 75.367 34.5575 75.367 35.1681V41.0302H73.8404Z" fill="#D5D5D6"/>
<path d="M86.2299 41.0302V32.1963H84.1537V30.853H86.2299V27.2095H87.7565V30.853H90.0972V32.1963H87.7565V41.0302H86.2299Z" fill="#D5D5D6"/>
<path d="M95.7389 41.193C95.0469 41.193 94.3887 41.0302 93.7645 40.7045C93.1403 40.3653 92.6315 39.87 92.2379 39.2186C91.858 38.5537 91.668 37.7395 91.668 36.7761V30.853H93.1946V36.7354C93.1946 37.6581 93.4592 38.4045 93.9884 38.9744C94.5312 39.5307 95.2165 39.8089 96.0442 39.8089C96.6141 39.8089 97.1298 39.68 97.5912 39.4222C98.0525 39.1508 98.4189 38.7844 98.6903 38.323C98.9753 37.8617 99.1177 37.3257 99.1177 36.715V30.853H100.644V41.0302H99.1177V39.4425C98.7514 39.931 98.3036 40.3449 97.7743 40.6842C97.2451 41.0234 96.5667 41.193 95.7389 41.193Z" fill="#D5D5D6"/>
<path d="M103.299 41.0302V30.853H104.825V33.3566C104.88 33.1801 104.981 32.9495 105.131 32.6645C105.293 32.366 105.524 32.0674 105.823 31.7689C106.121 31.4704 106.494 31.2193 106.942 31.0158C107.403 30.7987 107.946 30.6901 108.57 30.6901H108.672V32.2167H108.489C107.729 32.2167 107.071 32.427 106.515 32.8477C105.972 33.2548 105.551 33.7908 105.253 34.4557C104.968 35.107 104.825 35.8059 104.825 36.5522V41.0302H103.299Z" fill="#D5D5D6"/>
<path d="M114.576 41.193C113.544 41.193 112.642 40.9623 111.869 40.501C111.095 40.026 110.491 39.3883 110.057 38.5876C109.636 37.787 109.426 36.905 109.426 35.9416C109.426 34.9646 109.63 34.0825 110.037 33.2955C110.444 32.4949 111.027 31.8639 111.787 31.4025C112.547 30.9276 113.443 30.6901 114.474 30.6901C115.519 30.6901 116.414 30.9276 117.161 31.4025C117.921 31.8639 118.504 32.4949 118.911 33.2955C119.318 34.0825 119.522 34.9646 119.522 35.9416V36.5522H110.993C111.075 37.1493 111.265 37.6988 111.563 38.2009C111.875 38.6894 112.289 39.0829 112.805 39.3815C113.32 39.6664 113.918 39.8089 114.596 39.8089C115.315 39.8089 115.919 39.6529 116.408 39.3408C116.896 39.0151 117.276 38.6012 117.547 38.0991H119.216C118.864 39.0083 118.301 39.7546 117.527 40.3381C116.767 40.908 115.783 41.193 114.576 41.193ZM111.014 35.1274H117.934C117.798 34.2589 117.432 33.533 116.835 32.9495C116.238 32.366 115.451 32.0742 114.474 32.0742C113.497 32.0742 112.71 32.366 112.113 32.9495C111.529 33.533 111.163 34.2589 111.014 35.1274Z" fill="#D5D5D6"/>
</svg>
