<svg width="48" height="28" viewBox="0 0 48 28" fill="none" xmlns="http://www.w3.org/2000/svg">
<path d="M20.2072 9.53711L18.6304 18.7308H21.1523L22.7305 9.53711H20.2072Z" fill="#2B2F32" fill-opacity="0.5"/>
<path d="M16.5158 9.54734L14.0458 15.8171L13.7824 14.8705C13.2953 13.7298 11.9124 12.0916 10.2888 11.0592L12.5474 18.7262L15.216 18.7217L19.1876 9.54541L16.5158 9.54734Z" fill="#2B2F32" fill-opacity="0.5"/>
<path d="M12.825 10.2054C12.6784 9.64539 12.2535 9.47847 11.7262 9.4585H7.81612L7.78369 9.64152C10.8265 10.3749 12.8399 12.142 13.6754 14.2667L12.825 10.2054Z" fill="#2B2F32" fill-opacity="0.5"/>
<path d="M27.8421 11.2998C28.6671 11.2869 29.2652 11.4661 29.7296 11.6517L29.9573 11.758L30.2985 9.76542C29.799 9.57917 29.0161 9.37939 28.0393 9.37939C25.5471 9.37939 23.7906 10.6264 23.777 12.4134C23.7608 13.7339 25.0282 14.4711 25.9856 14.9113C26.9683 15.3624 27.2978 15.6492 27.2933 16.052C27.2855 16.6674 26.5097 16.9497 25.7852 16.9497C24.7753 16.9497 24.2388 16.8111 23.4105 16.4683L23.0855 16.3214L22.7307 18.3791C23.321 18.6362 24.4101 18.8572 25.5407 18.8688C28.1917 18.8688 29.9145 17.6367 29.9327 15.7272C29.9437 14.6825 29.271 13.8853 27.8135 13.2312C26.9314 12.8046 26.3917 12.5211 26.3969 12.0906C26.3969 11.7084 26.8548 11.2998 27.8421 11.2998Z" fill="#2B2F32" fill-opacity="0.5"/>
<path d="M36.7706 9.54736H34.822C34.2169 9.54736 33.7667 9.71105 33.5008 10.3104L29.7561 18.7359H32.4045C32.4045 18.7359 32.8365 17.6029 32.9345 17.3548C33.2244 17.3548 35.7976 17.3587 36.1641 17.3587C36.2393 17.6796 36.4716 18.7359 36.4716 18.7359H38.8112L36.7706 9.54736ZM33.6603 15.473C33.8679 14.9452 34.6651 12.9036 34.6651 12.9036C34.6515 12.9288 34.8707 12.372 35.0011 12.0259L35.171 12.8186C35.171 12.8186 35.6543 15.0135 35.7555 15.473H33.6603Z" fill="#2B2F32" fill-opacity="0.5"/>
<rect x="0.5" y="0.5" width="47" height="27" stroke="#2B2F32" stroke-opacity="0.5"/>
</svg>
