<svg width="214" height="171" viewBox="0 0 214 171" fill="none" xmlns="http://www.w3.org/2000/svg">
<path fill-rule="evenodd" clip-rule="evenodd" d="M213.905 27.5177L171.932 132.116L105.33 170.204L38.4772 132.09L0.777405 31.7058L57.3942 63.7485L52.6665 72.1019L19.0579 53.0808L46.2436 125.469L105.323 159.151L164.268 125.442L194.859 49.2062L107.482 98.2186L102.786 89.8472L213.905 27.5177Z" fill="#2B2F32"/>
<path fill-rule="evenodd" clip-rule="evenodd" d="M143.561 71.2753L172.356 126.562L163.843 130.996L135.048 75.7091L143.561 71.2753Z" fill="#2B2F32"/>
<path fill-rule="evenodd" clip-rule="evenodd" d="M105.071 0L138.335 61.0208L129.908 65.6149L105.197 20.285L46.6024 131.024L38.1184 126.535L105.071 0Z" fill="#2B2F32"/>
<path fill-rule="evenodd" clip-rule="evenodd" d="M72.3227 70.4422L170.419 124.577L165.781 132.981L67.6851 78.8459L72.3227 70.4422Z" fill="#2B2F32"/>
<path fill-rule="evenodd" clip-rule="evenodd" d="M40.0851 124.554L87.5014 99.0218L92.052 107.473L44.6357 133.005L40.0851 124.554Z" fill="#2B2F32"/>
</svg>
